<svg width="36" height="35" viewBox="0 0 36 35" fill="none" xmlns="http://www.w3.org/2000/svg">
<g clip-path="url(#clip0_4012_351)">
<path d="M4.77729 17.5343H0.661743C0.677552 27.2567 8.54504 35.1347 18.2569 35.1716V31.056C10.8162 31.0139 4.7931 24.9802 4.77202 17.5343H4.77729Z" fill="#1F0E5B"/>
<path d="M4.77729 17.5027C4.77729 10.0409 10.8057 3.98619 18.2621 3.94404V-0.171509C8.5345 -0.129352 0.661743 7.76448 0.661743 17.5027C0.661743 17.5132 0.661743 17.5238 0.661743 17.5343H4.77729C4.77729 17.5343 4.77729 17.5132 4.77729 17.5027Z" fill="#6A40D5"/>
<path d="M36.0048 17.5343H31.8892C31.8734 25.0066 25.8081 31.0613 18.3306 31.0613C18.3043 31.0613 18.2832 31.0613 18.2568 31.0613V35.1769C18.2568 35.1769 18.3043 35.1769 18.3306 35.1769C28.0793 35.1769 35.9837 27.283 36.0048 17.5396V17.5343Z" fill="#F97100"/>
<path d="M18.3359 3.94404C25.824 3.94404 31.8946 10.0146 31.8946 17.5027C31.8946 17.5132 31.8946 17.5238 31.8946 17.5343H36.0101C36.0101 17.5343 36.0101 17.5132 36.0101 17.5027C36.0048 7.7434 28.0952 -0.171509 18.3359 -0.171509C18.3096 -0.171509 18.2885 -0.171509 18.2621 -0.171509V3.94404C18.2621 3.94404 18.3096 3.94404 18.3359 3.94404Z" fill="#1F0E5B"/>
<path d="M16.3634 19.0629L10.9623 12.9104C10.6648 12.5764 10.9727 12.0598 11.4111 12.1537L19.4683 13.9801C19.7762 14.048 19.9223 14.4028 19.7606 14.669L17.1096 18.995C16.9478 19.2612 16.5721 19.2925 16.3686 19.0577L16.3634 19.0629Z" fill="#F97100"/>
<path d="M21.2739 15.0395L26.6749 21.192C26.9724 21.526 26.6645 22.0426 26.2262 21.9487L18.1689 20.1222C17.861 20.0544 17.7149 19.6995 17.8767 19.4334L20.5276 15.1073C20.6894 14.8412 21.0651 14.8098 21.2687 15.0447L21.2739 15.0395Z" fill="#F97100"/>
</g>
<defs>
<clipPath id="clip0_4012_351">
<rect width="35" height="35" fill="white" transform="translate(0.833313)"/>
</clipPath>
</defs>
</svg>
