<svg width="36" height="35" viewBox="0 0 36 35" fill="none" xmlns="http://www.w3.org/2000/svg">
<g clip-path="url(#clip0_4014_2)">
<path d="M17.9661 4.07559V0C8.3433 0.0156553 0.541747 7.80677 0.5 17.4296H4.57559C4.61734 10.0611 10.5924 4.09647 17.9661 4.07559Z" fill="#1F0E5B"/>
<path d="M18.0026 4.07559C25.3919 4.07559 31.3879 10.0455 31.4296 17.4296H35.5052C35.4635 7.79633 27.6411 0 18.0026 0C17.9922 0 17.9818 0 17.9713 0V4.07559C17.9713 4.07559 17.9922 4.07559 18.0026 4.07559Z" fill="#6A40D5"/>
<path d="M17.9661 35V30.9244C10.5663 30.9087 4.57037 24.9023 4.57037 17.4974C4.57037 17.4713 4.57037 17.4504 4.57037 17.4243H0.5C0.5 17.4243 0.5 17.4713 0.5 17.4974C0.5 27.1515 8.31721 34.9791 17.9661 35Z" fill="#F97100"/>
<path d="M31.4296 17.5026C31.4296 24.918 25.418 30.9296 18.0026 30.9296C17.9922 30.9296 17.9818 30.9296 17.9713 30.9296V35.0052C17.9713 35.0052 17.9922 35.0052 18.0026 35.0052C27.6672 35.0052 35.5052 27.1724 35.5052 17.5026C35.5052 17.4765 35.5052 17.4557 35.5052 17.4296H31.4296C31.4296 17.4296 31.4296 17.4765 31.4296 17.5026Z" fill="#1F0E5B"/>
<path d="M18.6706 10.6821L19.9908 14.7525C20.0848 15.0447 20.3561 15.2378 20.6588 15.2378H24.9379C25.6215 15.2378 25.9033 16.1093 25.3502 16.5111L21.8904 19.0264C21.6451 19.2038 21.5407 19.5221 21.6346 19.8143L22.9549 23.8847C23.1636 24.5318 22.4226 25.0693 21.8747 24.6727L18.4149 22.1574C18.1696 21.98 17.8356 21.98 17.5904 22.1574L14.1305 24.6727C13.5774 25.0745 12.8364 24.5318 13.0503 23.8847L14.3706 19.8143C14.4645 19.5221 14.3602 19.209 14.1149 19.0264L10.6551 16.5111C10.1019 16.1093 10.3889 15.2378 11.0673 15.2378H15.3464C15.6491 15.2378 15.9205 15.0395 16.0144 14.7525L17.3347 10.6821C17.5434 10.035 18.4618 10.035 18.6706 10.6821Z" fill="#F97100"/>
</g>
<defs>
<clipPath id="clip0_4014_2">
<rect width="35" height="35" fill="white" transform="translate(0.5)"/>
</clipPath>
</defs>
</svg>
