<svg width="42" height="31" viewBox="0 0 42 31" fill="none" xmlns="http://www.w3.org/2000/svg">
<g clip-path="url(#clip0_4014_10)">
<path d="M30.0683 7.07176L32.6135 4.52039C26.5871 -1.4975 16.8489 -1.50674 10.8132 4.49728L13.3584 7.04865C17.9878 2.45896 25.4482 2.46821 30.0683 7.07176Z" fill="#1F0E5B"/>
<path d="M13.3584 23.9283L10.8132 26.4797C16.8397 32.4976 26.5779 32.5068 32.6135 26.5028L30.0683 23.9515C25.439 28.5411 17.9785 28.5319 13.3584 23.9283Z" fill="#1F0E5B"/>
<path d="M6.17934 21.5295C9.50001 21.5295 12.1919 18.8311 12.1919 15.5024C12.1919 12.1737 9.50001 9.47522 6.17934 9.47522C2.85868 9.47522 0.166748 12.1737 0.166748 15.5024C0.166748 18.8311 2.85868 21.5295 6.17934 21.5295Z" fill="#6A40D5"/>
<path d="M35.1542 21.5295C38.4749 21.5295 41.1668 18.8311 41.1668 15.5024C41.1668 12.1737 38.4749 9.47522 35.1542 9.47522C31.8335 9.47522 29.1416 12.1737 29.1416 15.5024C29.1416 18.8311 31.8335 21.5295 35.1542 21.5295Z" fill="#F97100"/>
</g>
<defs>
<clipPath id="clip0_4014_10">
<rect width="41" height="31" fill="white" transform="translate(0.166748)"/>
</clipPath>
</defs>
</svg>
