<svg width="1440" height="170" viewBox="0 0 1440 170" fill="none" xmlns="http://www.w3.org/2000/svg">
<path d="M451.237 238.26H470.78C470.697 192.119 433.337 154.724 387.196 154.533V174.064C422.545 174.255 451.154 202.908 451.237 238.26Z" fill="#1F0E5B"/>
<path d="M302.897 238.26H322.441C322.524 202.791 351.323 174.059 386.839 174.059C386.956 174.059 387.073 174.059 387.191 174.059V154.528C387.073 154.528 386.956 154.528 386.839 154.528C340.531 154.528 302.98 192.001 302.897 238.26Z" fill="#F97100"/>
<path d="M13.7025 228.815V248.346C59.873 248.263 97.2918 210.926 97.4826 164.814H77.9391C77.7483 200.141 49.0764 228.732 13.7025 228.815Z" fill="#1F0E5B"/>
<path d="M499.491 80.5737V100.105C534.983 100.188 563.733 128.969 563.733 164.462C563.733 164.579 563.733 164.697 563.733 164.814H583.276C583.276 164.697 583.276 164.579 583.276 164.462C583.276 118.184 545.779 80.6568 499.491 80.5737Z" fill="#1F0E5B"/>
<path d="M225.951 157.774H245.494C245.411 111.633 208.051 74.2378 161.91 74.0471V93.5782C197.26 93.7689 225.868 122.423 225.951 157.774Z" fill="#1F0E5B"/>
<path d="M225.956 157.935C225.956 193.36 197.313 222.097 161.91 222.288V241.819C208.105 241.628 245.499 204.145 245.499 157.935C245.499 157.882 245.499 157.828 245.499 157.779H225.956C225.956 157.833 225.956 157.887 225.956 157.935Z" fill="#6A40D5"/>
<path d="M77.6162 157.774H97.1597C97.2429 122.305 126.042 93.5733 161.558 93.5733C161.675 93.5733 161.793 93.5733 161.91 93.5733V74.0422C161.793 74.0422 161.675 74.0422 161.558 74.0422C115.25 74.0422 77.6994 111.516 77.6162 157.774Z" fill="#F97100"/>
<path d="M762.186 195.111H781.729C781.646 148.969 744.286 111.574 698.145 111.384V130.915C733.495 131.105 762.103 159.759 762.186 195.111Z" fill="#1F0E5B"/>
<path d="M613.846 195.111H633.39C633.473 159.642 662.272 130.91 697.788 130.91C697.905 130.91 698.023 130.91 698.14 130.91V111.379C698.023 111.379 697.905 111.379 697.788 111.379C651.48 111.379 613.93 148.852 613.846 195.111Z" fill="#F97100"/>
<path d="M457.596 114.288V133.819C493.088 133.902 521.838 162.683 521.838 198.176C521.838 198.293 521.838 198.411 521.838 198.528H541.381C541.381 198.411 541.381 198.293 541.381 198.176C541.381 151.898 503.884 114.371 457.596 114.288Z" fill="#F97100"/>
<path d="M393.042 198.176C393.042 162.634 421.875 133.819 457.44 133.819C457.494 133.819 457.547 133.819 457.596 133.819V114.288C457.542 114.288 457.489 114.288 457.44 114.288C411.078 114.288 373.498 151.844 373.498 198.176C373.498 198.293 373.498 198.411 373.498 198.528H393.042C393.042 198.411 393.042 198.293 393.042 198.176Z" fill="#6A40D5"/>
<path d="M878.517 125.024V144.555C914.009 144.638 942.759 173.419 942.759 208.907C942.759 209.024 942.759 209.142 942.759 209.259H962.302C962.302 209.142 962.302 209.024 962.302 208.907C962.302 162.629 924.805 125.107 878.517 125.019V125.024Z" fill="#F97100"/>
<path d="M813.963 208.912C813.963 173.37 842.796 144.555 878.361 144.555C878.415 144.555 878.468 144.555 878.517 144.555V125.023C878.464 125.023 878.41 125.023 878.361 125.023C832 125.023 794.419 162.58 794.419 208.912C794.419 209.029 794.419 209.147 794.419 209.264H813.963C813.963 209.147 813.963 209.029 813.963 208.912Z" fill="#1F0E5B"/>
<path d="M962.297 101.542V82.0111C916.127 82.0942 878.708 119.431 878.517 165.543H898.061C898.252 130.216 926.924 101.625 962.297 101.542Z" fill="#1F0E5B"/>
<path d="M1174.37 222.591H1193.91C1193.83 176.45 1156.47 139.055 1110.33 138.864V158.395C1145.68 158.586 1174.29 187.24 1174.37 222.591Z" fill="#1F0E5B"/>
<path d="M1099.4 155.022C1099.4 119.597 1128.04 90.86 1163.44 90.6693V71.1382C1117.25 71.3289 1079.85 108.812 1079.85 155.022C1079.85 155.076 1079.85 155.129 1079.85 155.178H1099.4C1099.4 155.124 1099.4 155.071 1099.4 155.022Z" fill="#6A40D5"/>
<path d="M1218.21 149.395C1253.78 149.395 1282.61 178.205 1282.61 213.752C1282.61 213.806 1282.61 213.86 1282.61 213.908H1302.15C1302.15 213.855 1302.15 213.801 1302.15 213.752C1302.15 167.42 1264.57 129.864 1218.21 129.864C1218.09 129.864 1217.98 129.864 1217.86 129.864V149.395C1217.98 149.395 1218.09 149.395 1218.21 149.395Z" fill="#1F0E5B"/>
<path d="M926.351 203.964C926.351 168.54 954.994 139.803 990.397 139.612V120.081C944.202 120.272 906.808 157.755 906.808 203.964C906.808 204.018 906.808 204.072 906.808 204.121H926.351C926.351 204.067 926.351 204.013 926.351 203.964Z" fill="#6A40D5"/>
<path d="M990.749 139.607C1026.31 139.607 1055.15 168.422 1055.15 203.965C1055.15 204.018 1055.15 204.072 1055.15 204.121H1074.69C1074.69 204.067 1074.69 204.013 1074.69 203.965C1074.69 157.633 1037.11 120.076 990.749 120.076C990.632 120.076 990.515 120.076 990.397 120.076V139.607C990.515 139.607 990.632 139.607 990.749 139.607Z" fill="#F97100"/>
</svg>
