<svg width="24" height="24" viewBox="0 0 24 24" fill="none" xmlns="http://www.w3.org/2000/svg">
<path d="M11.9787 2.79452V0.000610352C5.37853 0.0129564 0.0296027 5.35325 0.00244141 11.9491H2.79636C2.82352 6.89589 6.92179 2.80625 11.9787 2.79391V2.79452Z" fill="#1F0E5B"/>
<path d="M12.0014 2.79381C17.0688 2.79381 21.1794 6.88838 21.2066 11.949H24.0005C23.9733 5.33772 18.5997 -0.0124468 11.9785 -0.000100746V2.79381C11.9859 2.79381 11.9933 2.79381 12.0014 2.79381Z" fill="#6A40D5"/>
<path d="M11.9786 23.9995V21.2056C6.905 21.1932 2.79499 17.077 2.79499 12.0003C2.79499 11.9837 2.79499 11.9664 2.79561 11.9497H0.00107914C-0.0260822 18.5925 5.34445 23.9877 11.978 24.0001L11.9786 23.9995Z" fill="#F97100"/>
<path d="M21.2072 11.9997C21.2072 17.0838 17.0855 21.2056 12.0014 21.2056C11.9939 21.2056 11.9865 21.2056 11.9785 21.2056V24.0001C18.633 24.0124 24.0283 18.6079 24.0011 11.9497H21.2066C21.2066 11.9664 21.2066 11.9837 21.2066 12.0003L21.2072 11.9997Z" fill="#1F0E5B"/>
</svg>
