<svg width="30" height="32" viewBox="0 0 30 32" fill="none" xmlns="http://www.w3.org/2000/svg">
<path d="M6.00708 16.6869H3.27783C3.28989 23.1291 8.50658 28.35 14.9498 28.3765V25.6495C10.0135 25.623 6.01854 21.6228 6.00648 16.6869H6.00708Z" fill="#1F0E5B"/>
<path d="M6.0071 16.6646C6.0071 11.7184 10.0069 7.70621 14.9504 7.6797V4.95267C8.49212 4.97918 3.26579 10.2242 3.27785 16.6869H6.0071C6.0071 16.6796 6.0071 16.6724 6.0071 16.6646Z" fill="#6A40D5"/>
<path d="M26.722 16.6869H23.9928C23.9807 21.6391 19.9598 25.6507 15.0006 25.6507C14.9843 25.6507 14.9675 25.6507 14.9512 25.6501V28.3777C21.4402 28.4042 26.7106 23.1622 26.7226 16.6875L26.722 16.6869Z" fill="#F97100"/>
<path d="M15 7.6791C19.9664 7.6791 23.9928 11.7022 23.9928 16.6646C23.9928 16.6718 23.9928 16.679 23.9928 16.6869H26.7226C26.7347 10.1916 21.4553 4.92555 14.9512 4.95206V7.6797C14.9675 7.6797 14.9843 7.6797 15.0006 7.6797L15 7.6791Z" fill="#1F0E5B"/>
<path d="M13.7751 17.8178L9.84346 13.3441C9.71441 13.197 9.84889 12.9711 10.04 13.0139L15.9026 14.34C16.0376 14.3708 16.1028 14.5244 16.0304 14.6425L14.0995 17.7901C14.0284 17.9058 13.8656 17.9202 13.7757 17.8178H13.7751Z" fill="#F97100"/>
<path d="M16.8731 14.9088L20.8048 19.3826C20.9338 19.5296 20.7993 19.7555 20.6082 19.7128L14.7457 18.3866C14.6106 18.3559 14.5455 18.2022 14.6178 18.0841L16.5487 14.9365C16.6198 14.8208 16.7826 14.8064 16.8725 14.9088H16.8731Z" fill="#F97100"/>
</svg>
