<svg width="24" height="25" viewBox="0 0 24 25" fill="none" xmlns="http://www.w3.org/2000/svg">
<path d="M12 8.03845V21.0385M3 9.03845C3 8.77324 3.10536 8.51888 3.29289 8.33135C3.48043 8.14381 3.73478 8.03845 4 8.03845H20C20.2652 8.03845 20.5196 8.14381 20.7071 8.33135C20.8946 8.51888 21 8.77324 21 9.03845V11.0385C21 11.3037 20.8946 11.558 20.7071 11.7456C20.5196 11.9331 20.2652 12.0385 20 12.0385H4C3.73478 12.0385 3.48043 11.9331 3.29289 11.7456C3.10536 11.558 3 11.3037 3 11.0385V9.03845Z" stroke="#6A40D5" stroke-width="2" stroke-linecap="round" stroke-linejoin="round"/>
<path d="M19 12.0384V19.0384C19 19.5688 18.7893 20.0775 18.4142 20.4526C18.0391 20.8277 17.5304 21.0384 17 21.0384H7C6.46957 21.0384 5.96086 20.8277 5.58579 20.4526C5.21071 20.0775 5 19.5688 5 19.0384V12.0384M7.5 8.0384C6.83696 8.0384 6.20107 7.77501 5.73223 7.30617C5.26339 6.83733 5 6.20144 5 5.5384C5 4.87536 5.26339 4.23948 5.73223 3.77063C6.20107 3.30179 6.83696 3.0384 7.5 3.0384C8.46469 3.02159 9.41003 3.48966 10.2127 4.38156C11.0154 5.27346 11.6383 6.5478 12 8.0384C12.3617 6.5478 12.9846 5.27346 13.7873 4.38156C14.59 3.48966 15.5353 3.02159 16.5 3.0384C17.163 3.0384 17.7989 3.30179 18.2678 3.77063C18.7366 4.23948 19 4.87536 19 5.5384C19 6.20144 18.7366 6.83733 18.2678 7.30617C17.7989 7.77501 17.163 8.0384 16.5 8.0384" stroke="#6A40D5" stroke-width="2" stroke-linecap="round" stroke-linejoin="round"/>
</svg>
