<svg width="43" height="28" viewBox="0 0 43 28" fill="none" xmlns="http://www.w3.org/2000/svg">
<g clip-path="url(#clip0_98_2625)">
<path d="M19.0662 27.5192L21.5848 25.0231C15.6213 19.1357 5.98483 19.1266 0.012207 25.0005L2.53084 27.4966C7.11183 23.0064 14.4943 23.0154 19.0662 27.5192Z" fill="#1F0E5B"/>
<path d="M10.7984 18.2314C14.0844 18.2314 16.7483 15.5914 16.7483 12.3349C16.7483 9.07831 14.0844 6.43835 10.7984 6.43835C7.51245 6.43835 4.84863 9.07831 4.84863 12.3349C4.84863 15.5914 7.51245 18.2314 10.7984 18.2314Z" fill="#F97100"/>
<path d="M39.4934 21.6047L42.0121 19.1086C36.0486 13.2211 26.4121 13.2121 20.4395 19.086L22.9581 21.582C27.5391 17.0918 34.9216 17.1009 39.4934 21.6047Z" fill="#1F0E5B"/>
<path d="M31.2257 12.3122C34.5117 12.3122 37.1755 9.67227 37.1755 6.41573C37.1755 3.15918 34.5117 0.519226 31.2257 0.519226C27.9397 0.519226 25.2759 3.15918 25.2759 6.41573C25.2759 9.67227 27.9397 12.3122 31.2257 12.3122Z" fill="#6A40D5"/>
</g>
<defs>
<clipPath id="clip0_98_2625">
<rect width="42" height="27" fill="white" transform="translate(0.012207 0.519226)"/>
</clipPath>
</defs>
</svg>
