<svg width="30" height="32" viewBox="0 0 30 32" fill="none" xmlns="http://www.w3.org/2000/svg">
<path d="M14.7387 27.0919L16.6683 25.1638C12.1011 20.6172 4.71717 20.6111 0.14209 25.1445L2.07174 27.0726C5.58129 23.6039 11.237 23.6099 14.7381 27.0919H14.7387Z" fill="#FDFD80"/>
<path d="M8.40547 19.9182C10.9232 19.9182 12.9643 17.8788 12.9643 15.3631C12.9643 12.8474 10.9232 10.808 8.40547 10.808C5.88772 10.808 3.84668 12.8474 3.84668 15.3631C3.84668 17.8788 5.88772 19.9182 8.40547 19.9182Z" fill="#F97100"/>
<path d="M27.9608 22.5211L29.8905 20.5931C25.3233 16.0464 17.9393 16.0404 13.3643 20.5738L15.2939 22.5019C18.8035 19.0331 24.4591 19.0391 27.9602 22.5211H27.9608Z" fill="#FDFD80"/>
<path d="M21.6272 15.3637C24.1449 15.3637 26.1859 13.3244 26.1859 10.8086C26.1859 8.29293 24.1449 6.25354 21.6272 6.25354C19.1094 6.25354 17.0684 8.29293 17.0684 10.8086C17.0684 13.3244 19.1094 15.3637 21.6272 15.3637Z" fill="#6A40D5"/>
</svg>
