<svg width="33" height="35" viewBox="0 0 33 35" fill="none" xmlns="http://www.w3.org/2000/svg">
<path d="M18.6711 8.58356V5.63062C25.647 5.64366 31.3004 11.2879 31.3291 18.2592H28.3762C28.3475 12.9184 24.0159 8.59595 18.6711 8.5829V8.58356Z" fill="#1F0E5B"/>
<path d="M18.6698 30.9955V28.0426C24.0322 28.0295 28.3762 23.679 28.3762 18.3134C28.3762 18.2958 28.3762 18.2775 28.3755 18.2599H31.3284C31.3284 18.2775 31.3291 18.2958 31.3291 18.3134C31.3291 25.3101 25.664 30.9831 18.6705 30.9962L18.6698 30.9955Z" fill="#6A40D5"/>
<path d="M8.91693 18.3134C8.91693 23.6869 13.2733 28.0432 18.6468 28.0432C18.6546 28.0432 18.6624 28.0432 18.6709 28.0432V30.9962C18.6631 30.9962 18.6552 30.9962 18.6468 30.9962C11.6422 30.9962 5.96399 25.318 5.96399 18.3134C5.96399 18.2958 5.96399 18.2775 5.96399 18.2599H8.91693C8.91693 18.2775 8.91693 18.2958 8.91693 18.3134Z" fill="#1F0E5B"/>
<path d="M21.5281 16.1442L16.1325 19.3973C15.9367 19.5153 15.6875 19.3744 15.6875 19.1461V12.6393C15.6875 12.4109 15.9367 12.27 16.1325 12.3881L21.5281 15.6412C21.7173 15.7553 21.7173 16.03 21.5281 16.1442Z" fill="#F97100"/>
<path d="M2.95085 4.5386H5.90379C5.91684 9.901 10.2673 14.2449 15.633 14.2449C15.6506 14.2449 15.6688 14.2449 15.6865 14.2443V17.1972C15.6688 17.1972 15.6506 17.1979 15.633 17.1979C8.6362 17.1979 2.96324 11.5327 2.9502 4.53925L2.95085 4.5386Z" fill="#F97100"/>
</svg>
