<svg width="24" height="24" viewBox="0 0 24 24" fill="none" xmlns="http://www.w3.org/2000/svg">
<path d="M11.9783 2.79452V0.000610352C5.37805 0.0129564 0.0291145 5.35325 0.00195312 11.9491H2.79587C2.82303 6.89589 6.9213 2.80625 11.9783 2.79391V2.79452Z" fill="#FDFD80"/>
<path d="M12.0009 2.79381C17.0683 2.79381 21.1789 6.88838 21.2061 11.949H24C23.9728 5.33772 18.5992 -0.0124468 11.978 -0.000100746V2.79381C11.9854 2.79381 11.9928 2.79381 12.0009 2.79381Z" fill="#6A40D5"/>
<path d="M11.9781 23.9995V21.2056C6.90451 21.1932 2.79451 17.077 2.79451 12.0003C2.79451 11.9837 2.79451 11.9664 2.79512 11.9497H0.000590855C-0.0265705 18.5925 5.34397 23.9877 11.9775 24.0001L11.9781 23.9995Z" fill="#F97100"/>
<path d="M21.2067 11.9997C21.2067 17.0838 17.085 21.2056 12.0009 21.2056C11.9935 21.2056 11.9861 21.2056 11.978 21.2056V24.0001C18.6326 24.0124 24.0278 18.6079 24.0006 11.9497H21.2061C21.2061 11.9664 21.2061 11.9837 21.2061 12.0003L21.2067 11.9997Z" fill="#FDFD80"/>
</svg>
