<svg width="30" height="31" viewBox="0 0 30 31" fill="none" xmlns="http://www.w3.org/2000/svg">
<path d="M7 23.0385C6.45 23.0385 5.97933 22.8428 5.588 22.4515C5.19667 22.0601 5.00067 21.5891 5 21.0385V9.03845C5 8.48845 5.196 8.01779 5.588 7.62645C5.98 7.23512 6.45067 7.03912 7 7.03845H23C23.55 7.03845 24.021 7.23445 24.413 7.62645C24.805 8.01845 25.0007 8.48912 25 9.03845V21.0385C25 21.5885 24.8043 22.0595 24.413 22.4515C24.0217 22.8435 23.5507 23.0391 23 23.0385H7ZM15 16.0385L7 11.0385V21.0385H23V11.0385L15 16.0385ZM15 14.0385L23 9.03845H7L15 14.0385ZM7 11.0385V9.03845V21.0385V11.0385Z" fill="#6A40D5"/>
</svg>
