<svg width="36" height="32" viewBox="0 0 36 32" fill="none" xmlns="http://www.w3.org/2000/svg">
<g clip-path="url(#clip0_98_2613)">
<path d="M15.5393 4.12904V0.519226C6.97808 0.533092 0.0371421 7.43379 0 15.9522H3.626C3.66314 9.42589 8.97911 4.1429 15.5393 4.12441V4.12904Z" fill="#1F0E5B"/>
<path d="M15.5393 31.5192V27.9094C8.95589 27.8956 3.62136 22.5756 3.62136 16.0169C3.62136 15.9938 3.62136 15.9753 3.62136 15.9522H0C0 15.9522 0 15.9938 0 16.0169C0 24.5677 6.95486 31.5007 15.5393 31.5192Z" fill="#6A40D5"/>
<path d="M27.5176 16.0216C27.5176 22.5895 22.1692 27.9141 15.5718 27.9141C15.5625 27.9141 15.5532 27.9141 15.5439 27.9141V31.5239C15.5439 31.5239 15.5625 31.5239 15.5718 31.5239C24.1702 31.5239 31.1436 24.5862 31.1436 16.0216C31.1436 15.9984 31.1436 15.98 31.1436 15.9568H27.5176C27.5176 15.9568 27.5176 15.9984 27.5176 16.0216Z" fill="#1F0E5B"/>
<path d="M35.7402 4.40176L29.6257 0.731863C29.2682 0.51925 28.8179 0.773462 28.8179 1.18482V8.52924C28.8179 8.9406 29.2729 9.19943 29.6257 8.9822L35.7449 5.3123C36.0884 5.10431 36.0884 4.60975 35.7449 4.40176H35.7402Z" fill="#F97100"/>
<path d="M13.1807 18.7346H16.8067C16.8206 12.1806 22.1644 6.86988 28.7525 6.86988C28.7757 6.86988 28.7943 6.86988 28.8175 6.86988V3.26007C28.8175 3.26007 28.7757 3.26007 28.7525 3.26007C20.1634 3.26007 13.1992 10.1839 13.1807 18.73V18.7346Z" fill="#F97100"/>
</g>
<defs>
<clipPath id="clip0_98_2613">
<rect width="36" height="31" fill="white" transform="translate(0 0.519226)"/>
</clipPath>
</defs>
</svg>
