<svg width="32" height="32" viewBox="0 0 32 32" fill="none" xmlns="http://www.w3.org/2000/svg">
<path d="M15.915 3.80691V0.0946045C7.14524 0.111009 0.0380427 7.20672 0.00195312 15.9708H3.71426C3.75035 9.25645 9.19578 3.8225 15.915 3.80609V3.80691Z" fill="#1F0E5B"/>
<path d="M15.9454 3.80609C22.6786 3.80609 28.1404 9.2466 28.1765 15.9707H31.8888C31.8527 7.18621 24.7127 0.077374 15.915 0.0937783V3.80609C15.9249 3.80609 15.9347 3.80609 15.9454 3.80609Z" fill="#6A40D5"/>
<path d="M15.9148 31.9822V28.2699C9.17346 28.2535 3.71245 22.7843 3.71245 16.0388C3.71245 16.0167 3.71245 15.9937 3.71327 15.9716H0.00013629C-0.0359533 24.7979 7.09995 31.9666 15.914 31.983L15.9148 31.9822Z" fill="#F97100"/>
<path d="M28.1773 16.038C28.1773 22.7933 22.7007 28.2699 15.9454 28.2699C15.9355 28.2699 15.9257 28.2699 15.915 28.2699V31.983C24.757 31.9994 31.9257 24.8184 31.8896 15.9716H28.1765C28.1765 15.9937 28.1765 16.0167 28.1765 16.0388L28.1773 16.038Z" fill="#1F0E5B"/>
<path d="M18.0057 10.4021V22.0385H15.5455V12.7373H15.4773L12.8125 14.4078V12.226L15.6932 10.4021H18.0057Z" fill="#F97100"/>
</svg>
