<svg width="32" height="32" viewBox="0 0 32 32" fill="none" xmlns="http://www.w3.org/2000/svg">
<path d="M15.915 3.80691V0.0946045C7.14524 0.111009 0.0380427 7.20672 0.00195312 15.9708H3.71426C3.75035 9.25645 9.19578 3.8225 15.915 3.80609V3.80691Z" fill="#1F0E5B"/>
<path d="M15.9454 3.80609C22.6786 3.80609 28.1404 9.2466 28.1765 15.9707H31.8888C31.8527 7.18621 24.7127 0.077374 15.915 0.0937783V3.80609C15.9249 3.80609 15.9347 3.80609 15.9454 3.80609Z" fill="#6A40D5"/>
<path d="M15.9148 31.9822V28.2699C9.17346 28.2535 3.71245 22.7843 3.71245 16.0388C3.71245 16.0167 3.71245 15.9937 3.71327 15.9716H0.00013629C-0.0359533 24.7979 7.09995 31.9666 15.914 31.983L15.9148 31.9822Z" fill="#F97100"/>
<path d="M28.1773 16.038C28.1773 22.7933 22.7007 28.2699 15.9454 28.2699C15.9355 28.2699 15.9257 28.2699 15.915 28.2699V31.983C24.757 31.9994 31.9257 24.8184 31.8896 15.9716H28.1765C28.1765 15.9937 28.1765 16.0167 28.1765 16.0388L28.1773 16.038Z" fill="#1F0E5B"/>
<path d="M11.4041 22.0385V20.2657L15.5462 16.4305C15.8984 16.0896 16.1939 15.7828 16.4325 15.51C16.675 15.2373 16.8587 14.9703 16.9837 14.7089C17.1087 14.4438 17.1712 14.1578 17.1712 13.851C17.1712 13.51 17.0935 13.2165 16.9382 12.9703C16.7829 12.7203 16.5708 12.529 16.3018 12.3964C16.0329 12.26 15.728 12.1919 15.3871 12.1919C15.031 12.1919 14.7204 12.2638 14.4553 12.4078C14.1901 12.5517 13.9856 12.7581 13.8416 13.0271C13.6977 13.296 13.6257 13.6161 13.6257 13.9873H11.2905C11.2905 13.226 11.4628 12.565 11.8075 12.0044C12.1522 11.4438 12.6352 11.01 13.2564 10.7032C13.8776 10.3964 14.5935 10.243 15.4041 10.243C16.2375 10.243 16.9628 10.3907 17.5803 10.6862C18.2015 10.9778 18.6844 11.3831 19.0291 11.9021C19.3738 12.421 19.5462 13.0157 19.5462 13.6862C19.5462 14.1256 19.459 14.5593 19.2848 14.9873C19.1143 15.4153 18.8094 15.8907 18.37 16.4135C17.9306 16.9324 17.3113 17.5555 16.5121 18.2828L14.8132 19.9475V20.0271H19.6996V22.0385H11.4041Z" fill="#F97100"/>
</svg>
