<svg width="32" height="32" viewBox="0 0 32 32" fill="none" xmlns="http://www.w3.org/2000/svg">
<path d="M15.915 3.80691V0.0946045C7.14524 0.111009 0.0380427 7.20672 0.00195312 15.9708H3.71426C3.75035 9.25645 9.19578 3.8225 15.915 3.80609V3.80691Z" fill="#1F0E5B"/>
<path d="M15.9454 3.80609C22.6786 3.80609 28.1404 9.2466 28.1765 15.9707H31.8888C31.8527 7.18621 24.7127 0.077374 15.915 0.0937783V3.80609C15.9249 3.80609 15.9347 3.80609 15.9454 3.80609Z" fill="#6A40D5"/>
<path d="M15.9148 31.9822V28.2699C9.17346 28.2535 3.71245 22.7843 3.71245 16.0388C3.71245 16.0167 3.71245 15.9937 3.71327 15.9716H0.00013629C-0.0359533 24.7979 7.09995 31.9666 15.914 31.983L15.9148 31.9822Z" fill="#F97100"/>
<path d="M28.1773 16.038C28.1773 22.7933 22.7007 28.2699 15.9454 28.2699C15.9355 28.2699 15.9257 28.2699 15.915 28.2699V31.983C24.757 31.9994 31.9257 24.8184 31.8896 15.9716H28.1765C28.1765 15.9937 28.1765 16.0167 28.1765 16.0388L28.1773 16.038Z" fill="#1F0E5B"/>
<path d="M15.4709 22.1975C14.6224 22.1975 13.8667 22.0517 13.2038 21.76C12.5447 21.4646 12.0239 21.0593 11.6413 20.5441C11.2625 20.0252 11.0675 19.4267 11.0561 18.7487H13.5334C13.5485 19.0328 13.6413 19.2828 13.8118 19.4987C13.986 19.7108 14.2171 19.8756 14.505 19.993C14.7929 20.1104 15.1167 20.1691 15.4766 20.1691C15.8516 20.1691 16.183 20.1028 16.4709 19.9703C16.7588 19.8377 16.9841 19.654 17.147 19.4191C17.3099 19.1843 17.3913 18.9135 17.3913 18.6066C17.3913 18.296 17.3042 18.0214 17.13 17.7828C16.9595 17.5403 16.7133 17.351 16.3913 17.2146C16.0732 17.0782 15.6944 17.01 15.255 17.01H14.1697V15.2032H15.255C15.6262 15.2032 15.9538 15.1388 16.2379 15.01C16.5258 14.8813 16.7493 14.7032 16.9084 14.476C17.0675 14.2449 17.147 13.976 17.147 13.6691C17.147 13.3775 17.0769 13.1218 16.9368 12.9021C16.8004 12.6786 16.6072 12.5044 16.3572 12.3794C16.111 12.2544 15.8232 12.1919 15.4936 12.1919C15.1603 12.1919 14.8554 12.2525 14.5788 12.3737C14.3023 12.4911 14.0807 12.6597 13.9141 12.8794C13.7474 13.0991 13.6584 13.3566 13.647 13.6521H11.2891C11.3004 12.9816 11.4917 12.3907 11.8629 11.8794C12.2341 11.368 12.7341 10.9684 13.3629 10.6805C13.9955 10.3888 14.7095 10.243 15.505 10.243C16.308 10.243 17.0107 10.3888 17.6129 10.6805C18.2152 10.9722 18.683 11.3661 19.0163 11.8623C19.3535 12.3547 19.5201 12.9078 19.5163 13.5214C19.5201 14.1729 19.3175 14.7165 18.9084 15.1521C18.5031 15.5877 17.9747 15.8642 17.3232 15.9816V16.0725C18.1792 16.1824 18.8307 16.4797 19.2777 16.9646C19.7285 17.4456 19.9519 18.0479 19.9482 18.7714C19.9519 19.4343 19.7607 20.0233 19.3743 20.5385C18.9917 21.0536 18.4633 21.4589 17.7891 21.7544C17.1148 22.0498 16.3421 22.1975 15.4709 22.1975Z" fill="#F97100"/>
</svg>
