<svg width="24" height="25" viewBox="0 0 24 25" fill="none" xmlns="http://www.w3.org/2000/svg">
<path d="M12.0088 0.0384521C9.90209 0.038802 7.83267 0.588332 6.00871 1.63175C4.18474 2.67517 2.67057 4.17568 1.61854 5.9823C0.566503 7.78892 0.013713 9.83793 0.0157859 11.9232C0.0178588 14.0084 0.574721 16.0564 1.63035 17.8609L0 24.0385L6.34385 22.3752C7.95125 23.2273 9.73378 23.7055 11.5559 23.7733C13.378 23.8411 15.1918 23.4968 16.8593 22.7665C18.5268 22.0362 20.0041 20.9392 21.1789 19.5588C22.3537 18.1785 23.1951 16.5511 23.6391 14.8006C24.083 13.05 24.1179 11.2223 23.741 9.45638C23.3642 7.69046 22.5855 6.03286 21.4641 4.60959C20.3428 3.18632 18.9084 2.03487 17.27 1.24277C15.6315 0.450678 13.8322 0.0387989 12.0088 0.0384521ZM19.062 18.8923C17.4516 20.4855 15.3393 21.4858 13.0755 21.7273C10.8118 21.9687 8.53267 21.4369 6.6163 20.2199L2.931 21.1875L3.87298 17.6243C2.77254 16.0892 2.13827 14.2748 2.04491 12.3949C1.95154 10.5149 2.40297 8.64769 3.34601 7.01323C4.28905 5.37876 5.6844 4.04515 7.36766 3.16951C9.05092 2.29387 10.952 1.91269 12.8468 2.07088C14.7416 2.22907 16.5513 2.92004 18.0626 4.06238C19.574 5.20472 20.7239 6.75084 21.3771 8.51856C22.0302 10.2863 22.1593 12.202 21.7491 14.0399C21.339 15.8778 20.4066 17.5614 19.062 18.8923Z" fill="white"/>
<path d="M18 15.2614C18.0006 15.4705 17.9839 15.6794 17.9501 15.8854C17.9183 16.0943 17.87 16.3 17.8055 16.5002C17.6574 16.9452 16.8478 17.49 16.8478 17.49C16.2725 17.8972 15.5851 18.0867 14.8962 18.028C14.7346 18.0105 14.5742 17.9833 14.4155 17.9465C14.1466 17.8827 14.0158 17.842 14.0158 17.842C13.8857 17.8013 13.5481 17.6883 13.5481 17.6883C13.2105 17.5761 13.1346 17.5546 13.1346 17.5546C12.6219 17.3907 12.125 17.1754 11.6507 16.9114C10.557 16.2797 9.36583 15.1476 9.36583 15.1476C8.66055 14.481 8.02291 13.7377 7.46335 12.9297C7.16572 12.4568 6.90926 11.9559 6.69716 11.4335C6.66825 11.3566 6.52585 11.0116 6.52585 11.0116C6.38128 10.6673 6.33069 10.5343 6.33069 10.5343C6.27864 10.4006 6.18612 10.1239 6.18612 10.1239C6.13334 9.96069 6.09012 9.79412 6.05674 9.62518C6.03014 9.47277 6.01227 9.31879 6.00325 9.16408C5.96132 8.35561 6.33936 7.50488 6.33936 7.50488C6.75498 6.59036 7.15832 6.38133 7.15832 6.38133C7.33871 6.29477 7.52472 6.22208 7.7149 6.16384C7.90315 6.10176 8.09693 6.06056 8.29316 6.04088C8.3519 6.03476 8.41121 6.04023 8.46808 6.05702C8.61988 6.10082 8.94153 6.69872 8.94153 6.69872C9.04128 6.86011 9.21404 7.15982 9.21404 7.15982C9.38752 7.458 9.5328 7.69777 9.5328 7.69777C9.67737 7.93985 9.81326 8.15196 9.81326 8.15196C9.84 8.18577 9.96939 8.3633 9.96939 8.3633C10.0405 8.45881 10.1052 8.55947 10.1631 8.66455C10.2028 8.74065 10.2274 8.82462 10.2354 8.91124C10.2441 9.08723 10.0229 9.36466 10.0229 9.36466C9.87261 9.54832 9.70977 9.71991 9.53569 9.87802C9.36385 10.033 9.20092 10.1987 9.04779 10.3745C8.82516 10.6342 8.83094 10.7925 8.83094 10.7925C8.83964 10.8598 8.85691 10.9254 8.88226 10.9877C8.92997 11.1038 8.96249 11.1637 8.96249 11.1637C8.9943 11.2229 9.08899 11.3674 9.08899 11.3674C9.18368 11.5119 9.19235 11.5288 9.19235 11.5288C9.62873 12.2539 10.1481 12.9186 10.7385 13.5077C11.5936 14.3207 12.7624 14.9209 12.7624 14.9209C12.7797 14.9286 12.925 15.0124 12.925 15.0124C13.0696 15.0969 13.1296 15.1238 13.1296 15.1238C13.1889 15.1515 13.3031 15.1884 13.3031 15.1884C13.3636 15.2103 13.4271 15.2214 13.491 15.2214C13.6399 15.213 13.8582 14.9486 13.8582 14.9486C14.005 14.767 14.1416 14.5763 14.2673 14.3776C14.396 14.1765 14.5383 13.9857 14.6931 13.8066C14.928 13.5415 15.0935 13.5315 15.0935 13.5315C15.1752 13.5307 15.2562 13.5469 15.332 13.5791C15.4361 13.6298 15.5372 13.6871 15.6349 13.7505C15.8156 13.8673 15.8517 13.8919 15.8517 13.8919C16.0686 14.0118 16.3086 14.1378 16.3086 14.1378C16.5514 14.2646 16.8492 14.4145 16.8492 14.4145C17.147 14.5644 17.309 14.6512 17.309 14.6512C17.9038 14.9248 17.9595 15.08 17.9595 15.08C17.9813 15.138 17.9949 15.1991 18 15.2614Z" fill="white"/>
</svg>
